<svg width="16" height="15" viewBox="0 0 16 15" fill="none" xmlns="http://www.w3.org/2000/svg">
<path fill-rule="evenodd" clip-rule="evenodd" d="M0.929612 13.1568C0.539088 13.5473 0.539088 14.1805 0.929612 14.571C1.32014 14.9615 1.9533 14.9615 2.34383 14.571L8.00085 8.91399L13.658 14.5711C14.0485 14.9616 14.6817 14.9616 15.0722 14.5711C15.4627 14.1806 15.4627 13.5474 15.0722 13.1569L9.41506 7.49978L15.0717 1.84309C15.4623 1.45257 15.4623 0.819403 15.0717 0.428879C14.6812 0.0383549 14.0481 0.0383553 13.6575 0.428879L8.00085 6.08557L2.34427 0.428985C1.95374 0.0384611 1.32058 0.0384608 0.930055 0.428985C0.53953 0.819509 0.539531 1.45267 0.930055 1.8432L6.58663 7.49978L0.929612 13.1568Z" fill="#9797AF"/>
</svg>
