<svg width="106" height="56" viewBox="0 0 106 56" fill="none" xmlns="http://www.w3.org/2000/svg">
<path d="M12.6875 12.8047H8.20312V25H4.9082V12.8047H0.410156V10.3027H12.6875V12.8047ZM21.7788 25.2598C20.6485 25.2598 19.6186 25.082 18.6889 24.7266C17.7592 24.362 16.9617 23.8516 16.2963 23.1953C15.6401 22.5391 15.1297 21.7552 14.7651 20.8438C14.4005 19.9323 14.2182 18.9297 14.2182 17.8359C14.2182 16.6966 14.3959 15.653 14.7514 14.7051C15.116 13.748 15.6355 12.9277 16.31 12.2441C16.9845 11.5514 17.8048 11.0137 18.7709 10.6309C19.7371 10.248 20.8308 10.0566 22.0522 10.0566C23.1824 10.0566 24.2032 10.2435 25.1147 10.6172C26.0261 10.9909 26.8054 11.5104 27.4526 12.1758C28.0997 12.8411 28.5965 13.6296 28.9428 14.541C29.2983 15.4434 29.476 16.4323 29.476 17.5078C29.476 18.6927 29.2892 19.7637 28.9155 20.7207C28.5418 21.6777 28.0131 22.4935 27.3295 23.168C26.6551 23.8333 25.8439 24.3483 24.8959 24.7129C23.9571 25.0775 22.9181 25.2598 21.7788 25.2598ZM21.9291 12.5586C21.2638 12.5586 20.6668 12.6816 20.1381 12.9277C19.6095 13.1738 19.1629 13.5202 18.7983 13.9668C18.4337 14.4134 18.1511 14.9512 17.9506 15.5801C17.7592 16.209 17.6635 16.9062 17.6635 17.6719C17.6635 18.4466 17.7547 19.1484 17.937 19.7773C18.1284 20.3971 18.4018 20.9303 18.7573 21.377C19.1127 21.8145 19.5457 22.1562 20.0561 22.4023C20.5756 22.6393 21.159 22.7578 21.8061 22.7578C22.4897 22.7578 23.0958 22.6439 23.6245 22.416C24.1531 22.1882 24.5952 21.86 24.9506 21.4316C25.3061 20.9941 25.575 20.4655 25.7573 19.8457C25.9396 19.2168 26.0307 18.5059 26.0307 17.7129C26.0307 16.9017 25.9441 16.1771 25.7709 15.5391C25.5978 14.901 25.338 14.3633 24.9916 13.9258C24.6544 13.4792 24.226 13.1419 23.7065 12.9141C23.1961 12.6771 22.6036 12.5586 21.9291 12.5586ZM44.6376 20.6934C44.6376 21.3496 44.5009 21.9421 44.2274 22.4707C43.954 22.9993 43.5712 23.4551 43.079 23.8379C42.5868 24.2116 41.9943 24.4987 41.3016 24.6992C40.6089 24.8997 39.8479 25 39.0184 25H33.3856V10.3027H38.7997C40.4859 10.3027 41.7574 10.6035 42.6141 11.2051C43.48 11.8066 43.913 12.6406 43.913 13.707C43.913 14.5273 43.6532 15.2337 43.1337 15.8262C42.6233 16.4186 41.885 16.847 40.9188 17.1113V17.1523C41.5204 17.2161 42.0536 17.3529 42.5184 17.5625C42.9833 17.763 43.3707 18.0182 43.6805 18.3281C43.9996 18.638 44.2365 18.998 44.3915 19.4082C44.5555 19.8092 44.6376 20.2376 44.6376 20.6934ZM40.4677 14.1855C40.4677 13.5566 40.2671 13.1328 39.8661 12.9141C39.4651 12.6862 38.8361 12.5723 37.9794 12.5723H36.6805V16.2773H37.9384C38.7587 16.2773 39.383 16.1042 39.8114 15.7578C40.2489 15.4115 40.4677 14.8874 40.4677 14.1855ZM41.2059 20.666C41.2059 19.9368 40.9598 19.4036 40.4677 19.0664C39.9846 18.7292 39.2463 18.5605 38.2528 18.5605H36.6805V22.7305H38.4442C39.3374 22.7305 40.021 22.571 40.495 22.252C40.969 21.9329 41.2059 21.4043 41.2059 20.666ZM61.303 25H57.7484L56.5179 21.582H50.9808L49.805 25H46.2503L51.9515 10.3027H55.6429L61.303 25ZM55.7659 19.2168L54.139 14.5547C54.057 14.3177 53.9795 14.0625 53.9066 13.7891C53.8336 13.5065 53.7881 13.2559 53.7698 13.0371H53.7015C53.6741 13.2467 53.624 13.4883 53.5511 13.7617C53.4873 14.026 53.4098 14.2995 53.3187 14.582L51.7738 19.2168H55.7659ZM75.1931 14.8691C75.1931 15.5983 75.0473 16.2682 74.7556 16.8789C74.4731 17.4896 74.072 18.0137 73.5525 18.4512C73.033 18.8887 72.4041 19.2305 71.6658 19.4766C70.9275 19.7135 70.1072 19.832 69.2048 19.832H67.4959V25H64.2009V10.3027H69.3279C71.2511 10.3027 72.7094 10.6947 73.7029 11.4785C74.6964 12.2533 75.1931 13.3835 75.1931 14.8691ZM71.7478 14.9648C71.7478 14.1445 71.5108 13.5521 71.0369 13.1875C70.572 12.8138 69.8611 12.627 68.9041 12.627H67.4959V17.5215H68.7947C69.7608 17.5215 70.4946 17.3118 70.9959 16.8926C71.4972 16.4733 71.7478 15.8307 71.7478 14.9648ZM78.9797 25V10.3027H82.2609V16.168H84.8723C85.7108 16.168 86.4628 16.2682 87.1281 16.4688C87.7935 16.6693 88.354 16.9564 88.8098 17.3301C89.2746 17.6947 89.6255 18.1367 89.8625 18.6562C90.1086 19.1758 90.2316 19.7591 90.2316 20.4062C90.2316 21.1081 90.0995 21.7415 89.8352 22.3066C89.58 22.8717 89.2108 23.3548 88.7277 23.7559C88.2447 24.1569 87.6568 24.4668 86.9641 24.6855C86.2714 24.8952 85.4921 25 84.6262 25H78.9797ZM82.2609 18.4238V22.7441H84.175C85.1411 22.7441 85.8749 22.5755 86.3762 22.2383C86.8775 21.901 87.1281 21.3451 87.1281 20.5703C87.1281 19.8047 86.8866 19.2578 86.4035 18.9297C85.9204 18.5924 85.1958 18.4238 84.2297 18.4238H82.2609ZM95.509 25H92.2277V10.3027H95.509V25ZM2.26953 34.3027H5.31836V42.6152C5.31836 43.1257 5.30924 43.5632 5.29102 43.9277C5.27279 44.2832 5.25 44.5566 5.22266 44.748H5.26367C5.35482 44.5931 5.46419 44.4108 5.5918 44.2012C5.72852 43.9915 5.91992 43.7181 6.16602 43.3809L12.7012 34.3027H16.2148V49H13.166V40.5371C13.166 40.0176 13.1706 39.571 13.1797 39.1973C13.1979 38.8145 13.2207 38.5182 13.248 38.3086H13.1934C13.1204 38.4635 13.002 38.6732 12.8379 38.9375C12.6738 39.2018 12.4733 39.4935 12.2363 39.8125L5.57812 49H2.26953V34.3027ZM40.0028 36.8047H35.5184V49H32.2235V36.8047H27.7255V34.3027H40.0028V36.8047ZM49.0941 49.2598C47.9639 49.2598 46.9339 49.082 46.0042 48.7266C45.0745 48.362 44.277 47.8516 43.6116 47.1953C42.9554 46.5391 42.445 45.7552 42.0804 44.8438C41.7158 43.9323 41.5335 42.9297 41.5335 41.8359C41.5335 40.6966 41.7113 39.653 42.0667 38.7051C42.4313 37.748 42.9508 36.9277 43.6253 36.2441C44.2998 35.5514 45.1201 35.0137 46.0863 34.6309C47.0524 34.248 48.1461 34.0566 49.3675 34.0566C50.4977 34.0566 51.5185 34.2435 52.43 34.6172C53.3415 34.9909 54.1208 35.5104 54.7679 36.1758C55.415 36.8411 55.9118 37.6296 56.2581 38.541C56.6136 39.4434 56.7913 40.4323 56.7913 41.5078C56.7913 42.6927 56.6045 43.7637 56.2308 44.7207C55.8571 45.6777 55.3284 46.4935 54.6448 47.168C53.9704 47.8333 53.1592 48.3483 52.2113 48.7129C51.2724 49.0775 50.2334 49.2598 49.0941 49.2598ZM49.2445 36.5586C48.5791 36.5586 47.9821 36.6816 47.4534 36.9277C46.9248 37.1738 46.4782 37.5202 46.1136 37.9668C45.749 38.4134 45.4665 38.9512 45.2659 39.5801C45.0745 40.209 44.9788 40.9062 44.9788 41.6719C44.9788 42.4466 45.07 43.1484 45.2523 43.7773C45.4437 44.3971 45.7171 44.9303 46.0726 45.377C46.428 45.8145 46.861 46.1562 47.3714 46.4023C47.8909 46.6393 48.4743 46.7578 49.1214 46.7578C49.805 46.7578 50.4111 46.6439 50.9398 46.416C51.4684 46.1882 51.9105 45.86 52.2659 45.4316C52.6214 44.9941 52.8903 44.4655 53.0726 43.8457C53.2549 43.2168 53.346 42.5059 53.346 41.7129C53.346 40.9017 53.2594 40.1771 53.0863 39.5391C52.9131 38.901 52.6533 38.3633 52.307 37.9258C51.9697 37.4792 51.5413 37.1419 51.0218 36.9141C50.5114 36.6771 49.9189 36.5586 49.2445 36.5586ZM72.4724 49H69.1912V42.916C68.4438 43.2897 67.7009 43.5814 66.9627 43.791C66.2335 44.0007 65.4633 44.1055 64.6521 44.1055C63.212 44.1055 62.1091 43.75 61.3435 43.0391C60.587 42.3281 60.2088 41.2663 60.2088 39.8535V34.3027H63.49V39.4297C63.49 40.2044 63.6586 40.7741 63.9959 41.1387C64.3422 41.4941 64.8845 41.6719 65.6228 41.6719C66.197 41.6719 66.7758 41.5853 67.3591 41.4121C67.9516 41.2389 68.5623 40.9837 69.1912 40.6465V34.3027H72.4724V49ZM90.0676 49H86.1574L81.4406 42.6016C81.3768 42.5195 81.2948 42.401 81.1945 42.2461C81.0943 42.0911 81.0077 41.9362 80.9348 41.7812H80.8801V49H77.5852V34.3027H80.8801V41.2344H80.9348C80.9803 41.1432 81.0533 41.0202 81.1535 40.8652C81.2538 40.7103 81.354 40.5645 81.4543 40.4277L85.9387 34.3027H89.5891L84.216 41.3438L90.0676 49ZM105.749 49H102.194L100.964 45.582H95.4264L94.2506 49H90.6959L96.3971 34.3027H100.089L105.749 49ZM100.212 43.2168L98.5846 38.5547C98.5026 38.3177 98.4251 38.0625 98.3522 37.7891C98.2793 37.5065 98.2337 37.2559 98.2155 37.0371H98.1471C98.1198 37.2467 98.0696 37.4883 97.9967 37.7617C97.9329 38.026 97.8554 38.2995 97.7643 38.582L96.2194 43.2168H100.212Z" fill="white"/>
</svg>
