<svg width="56" height="36" viewBox="0 0 56 36" fill="none" xmlns="http://www.w3.org/2000/svg">
<path fill-rule="evenodd" clip-rule="evenodd" d="M21.2214 23.4665C21.3829 23.9206 21.8452 24.1949 22.3212 24.119L35.0874 22.0828C35.5004 22.017 35.8288 21.701 35.9106 21.2909L37.2654 14.4986C37.3875 13.8864 36.925 13.3132 36.3008 13.3032L18.9412 13.0232C18.2435 13.012 17.7491 13.7007 17.9829 14.3581L21.2214 23.4665Z" fill="white"/>
<path fill-rule="evenodd" clip-rule="evenodd" d="M21.8262 31.3593C23.1109 31.3593 24.1523 30.3178 24.1523 29.0331C24.1523 27.7484 23.1109 26.707 21.8262 26.707C20.5415 26.707 19.5 27.7484 19.5 29.0331C19.5 30.3178 20.5415 31.3593 21.8262 31.3593Z" fill="white"/>
<path fill-rule="evenodd" clip-rule="evenodd" d="M33.457 31.3593C34.7417 31.3593 35.7831 30.3178 35.7831 29.0331C35.7831 27.7484 34.7417 26.707 33.457 26.707C32.1723 26.707 31.1308 27.7484 31.1308 29.0331C31.1308 30.3178 32.1723 31.3593 33.457 31.3593Z" fill="white"/>
<path fill-rule="evenodd" clip-rule="evenodd" d="M15 10C16.933 10 18.5 9.77614 18.5 9.5C18.5 9.22386 16.933 9 15 9C13.067 9 11.5 9.22386 11.5 9.5C11.5 9.77614 13.067 10 15 10Z" fill="white"/>
<path fill-rule="evenodd" clip-rule="evenodd" d="M12.4544 8.65147C13.1177 8.55672 14.0175 8.5 15 8.5C15.9825 8.5 16.8823 8.55672 17.5456 8.65147C17.8735 8.69831 18.1649 8.75734 18.3849 8.83167C18.4917 8.86772 18.6118 8.91717 18.7151 8.98926C18.8002 9.04864 19 9.21275 19 9.5C19 9.78725 18.8002 9.95136 18.7151 10.0107C18.6118 10.0828 18.4917 10.1323 18.3849 10.1683C18.1649 10.2427 17.8735 10.3017 17.5456 10.3485C16.8823 10.4433 15.9825 10.5 15 10.5C14.0175 10.5 13.1177 10.4433 12.4544 10.3485C12.1265 10.3017 11.8351 10.2427 11.6151 10.1683C11.5083 10.1323 11.3882 10.0828 11.2849 10.0107C11.1998 9.95136 11 9.78725 11 9.5C11 9.21275 11.1998 9.04864 11.2849 8.98926C11.3882 8.91717 11.5083 8.86772 11.6151 8.83167C11.8351 8.75734 12.1265 8.69831 12.4544 8.65147Z" fill="white"/>
</svg>
