<svg width="30" height="11" viewBox="0 0 30 11" fill="none" xmlns="http://www.w3.org/2000/svg">
<path d="M16.682 2.34377L14.8652 6.2583H14.6814V1.50031H12.0859V9.50239H14.238C14.8219 9.50239 15.341 9.16717 15.5898 8.64811L17.4174 4.74439H17.6012V9.50239H20.1966V1.50031H18.0121C17.4498 1.50031 16.9199 1.83553 16.682 2.34377Z" fill="#319B42"/>
<path d="M6.97268 2.54923L5.90207 6.2583H5.71823L4.6368 2.54923C4.45296 1.92204 3.8798 1.50031 3.23095 1.50031H0.667969V9.50239H3.26339V4.74439H3.44723L4.9396 9.50239H6.66988L8.16225 4.74439H8.34609V9.50239H10.9415V1.50031H8.37853C7.72968 1.50031 7.14571 1.92204 6.97268 2.54923Z" fill="#319B42"/>
<path d="M21.3247 5.06739V9.50239H23.9209V6.90629H26.7119C27.9235 6.90629 28.9512 6.13828 29.3298 5.06739H21.3247Z" fill="#319B42"/>
<path d="M26.636 1.50031H20.8594C21.2164 3.40411 22.8823 4.74543 24.8836 4.74543H29.3729C29.4054 4.57235 29.427 4.37765 29.427 4.18294C29.427 2.6361 28.183 1.50031 26.636 1.50031Z" fill="url(#paint0_linear_17_1071)"/>
<defs>
<linearGradient id="paint0_linear_17_1071" x1="20.8594" y1="3.12287" x2="29.427" y2="3.12287" gradientUnits="userSpaceOnUse">
<stop stop-color="#00A3E1"/>
<stop offset="0.3042" stop-color="#009ADD"/>
<stop offset="0.7987" stop-color="#0082D4"/>
<stop offset="1" stop-color="#0076CF"/>
</linearGradient>
</defs>
</svg>
