<svg width="32" height="24" viewBox="0 0 32 24" fill="none" xmlns="http://www.w3.org/2000/svg">
<rect width="32" height="24" rx="4" fill="#F6F6FA"/>
<path d="M17.6813 8.84377L15.8645 12.7583H15.6806V8.00031H13.0852V16.0024H15.2372C15.8212 16.0024 16.3403 15.6672 16.589 15.1481L18.4166 11.2444H18.6005V16.0024H21.1959V8.00031H19.0114C18.4491 8.00031 17.9192 8.33553 17.6813 8.84377Z" fill="#319B42"/>
<path d="M7.97243 9.04923L6.90182 12.7583H6.71798L5.63656 9.04923C5.45271 8.42204 4.87956 8.00031 4.2307 8.00031H1.66772V16.0024H4.26315V11.2444H4.44699L5.93935 16.0024H7.66963L9.162 11.2444H9.34584V16.0024H11.9413V8.00031H9.37829C8.72943 8.00031 8.14546 8.42204 7.97243 9.04923Z" fill="#319B42"/>
<path d="M22.3244 11.5674V16.0024H24.9207V13.4063H27.7116C28.9232 13.4063 29.9509 12.6383 30.3295 11.5674H22.3244Z" fill="#319B42"/>
<path d="M27.6358 8.00031H21.8591C22.2161 9.90411 23.882 11.2454 25.8833 11.2454H30.3727C30.4051 11.0724 30.4267 10.8776 30.4267 10.6829C30.4267 9.1361 29.1827 8.00031 27.6358 8.00031Z" fill="url(#paint0_linear_7_2399)"/>
<defs>
<linearGradient id="paint0_linear_7_2399" x1="21.8591" y1="9.62287" x2="30.4267" y2="9.62287" gradientUnits="userSpaceOnUse">
<stop stop-color="#00A3E1"/>
<stop offset="0.3042" stop-color="#009ADD"/>
<stop offset="0.7987" stop-color="#0082D4"/>
<stop offset="1" stop-color="#0076CF"/>
</linearGradient>
</defs>
</svg>
